<svg width="250" height="250" viewBox="0 0 250 250" fill="none" xmlns="http://www.w3.org/2000/svg">
<path d="M0 27C0 12.0883 12.0883 0 27 0H223C237.912 0 250 12.0883 250 27V223C250 237.912 237.912 250 223 250H27C12.0883 250 0 237.912 0 223V27Z" fill="#0A0A15"/>
<path d="M139.629 153.073L41.0884 103.716C41.0884 103.716 64.4706 115.428 78 111C105.5 102 132.965 55.6013 132.965 55.6013L198.65 87.6411L204.33 137.737L193.175 128.854L186.274 95.372L155.555 84.26L95.0586 105.088C95.0586 105.088 102.674 115.054 113.928 124.618C121.349 130.925 131.473 134.269 134.653 139.46C137.833 144.651 139.629 153.073 139.629 153.073Z" fill="url(#paint0_linear_187_117)" stroke="black"/>
<path d="M97.08 121.863H184.711C188.853 121.863 192.211 125.221 192.211 129.363V136.564C192.211 140.706 188.853 144.064 184.711 144.064H97.08C92.9379 144.064 89.58 140.706 89.58 136.564V129.363C89.58 125.221 92.9379 121.863 97.08 121.863Z" fill="white" stroke="black"/>
<path d="M138.902 73.4164L92.5701 92.549L131.807 55.3276L181.158 79.3999L157.595 127.708C157.595 127.708 152.066 121.552 151.779 116.697C151.605 113.736 153.263 109.246 153.263 109.246L163.926 85.6221L138.902 73.4164Z" fill="#D9D9D9" stroke="black"/>
<path d="M142.03 74.9421L109.625 85.8098L127.984 53.4629L170.037 73.9751L146.473 122.284C146.473 122.284 140.944 116.127 140.658 111.273C140.483 108.311 142.141 103.822 142.141 103.822L151.414 79.5192L142.03 74.9421Z" fill="#D9D9D9" stroke="black"/>
<path d="M198.645 63.8363L158.931 35L32.5894 77.9196L1 96.7971V149.147L47.0596 107.35C47.0596 107.35 70.1118 116.702 82.5425 110.46C108.184 97.5835 131.502 59.4809 131.502 59.4809L155.956 49.0372L179.801 64.5403C179.801 64.5403 184.553 66.5668 187.778 66.7101C192.163 66.9049 198.645 63.8363 198.645 63.8363Z" fill="url(#paint1_linear_187_117)" stroke="black"/>
<rect x="90.0133" y="143.749" width="102.631" height="73.2431" rx="11.5" fill="white" stroke="black"/>
<defs>
<linearGradient id="paint0_linear_187_117" x1="204" y1="128.5" x2="152" y2="-4" gradientUnits="userSpaceOnUse">
<stop stop-color="#D9D9D9"/>
<stop offset="1" stop-color="#D9D9D9" stop-opacity="0"/>
</linearGradient>
<linearGradient id="paint1_linear_187_117" x1="100" y1="95.5" x2="1" y2="99" gradientUnits="userSpaceOnUse">
<stop stop-color="#D9D9D9"/>
<stop offset="1" stop-color="#D9D9D9" stop-opacity="0"/>
</linearGradient>
</defs>
</svg>
